<?xml version="1.0" standalone="no"?>
<!DOCTYPE svg PUBLIC "-//W3C//DTD SVG 20010904//EN"
 "http://www.w3.org/TR/2001/REC-SVG-20010904/DTD/svg10.dtd">
<svg version="1.0" xmlns="http://www.w3.org/2000/svg"
 width="740.000000pt" height="527.000000pt" viewBox="0 0 740.000000 527.000000"
 preserveAspectRatio="xMidYMid meet">

<g transform="translate(0.000000,527.000000) scale(0.100000,-0.100000)"
fill="#000000" stroke="none">
<path d="M1520 4187 c-107 -30 -162 -86 -236 -243 -53 -114 -98 -175 -152
-206 l-29 -17 -18 60 c-12 37 -23 58 -30 55 -7 -2 -34 -8 -60 -11 -46 -7 -47
-8 -41 -39 25 -122 25 -122 -73 -76 -35 17 -71 28 -80 25 -9 -3 -36 -23 -61
-44 l-44 -39 29 -41 c55 -81 148 -136 244 -148 54 -6 54 -7 67 -76 6 -38 7
-39 43 -32 91 17 131 27 131 35 0 4 -7 27 -15 50 -8 23 -15 48 -15 54 0 6 30
33 66 60 66 49 162 159 205 235 12 23 25 41 28 41 5 0 61 -389 257 -1790 29
-212 63 -423 74 -469 66 -271 259 -500 508 -605 302 -127 670 -47 947 206 131
119 238 290 266 423 20 99 15 273 -14 415 -14 69 -28 145 -31 171 -7 48 9 145
26 155 12 7 581 43 659 42 30 -1 144 4 254 10 110 7 279 17 375 22 96 6 249
15 340 21 91 5 242 14 335 19 94 6 240 14 325 19 85 6 243 15 350 21 296 16
324 20 328 48 3 21 1 22 -80 22 -57 0 -1375 37 -1415 40 -2 0 -3 113 -3 252 0
138 3 248 7 245 3 -4 6 -60 6 -125 0 -84 1 -93 4 -32 4 104 11 140 23 120 5
-8 12 -11 17 -7 4 4 2 17 -5 27 -11 18 -9 20 13 20 24 0 25 -3 25 -60 0 -66
20 -119 54 -140 l21 -13 -21 24 c-39 44 -44 66 -46 206 -1 79 -3 107 -5 66
l-4 -73 -49 0 -50 0 0 -260 0 -261 -67 3 -68 3 -3 258 -2 257 -50 0 -50 0 0
42 c0 40 0 41 -20 23 -11 -10 -17 -22 -13 -28 3 -5 2 -7 -4 -4 -6 4 -20 -5
-33 -18 -17 -18 -27 -22 -40 -15 -25 14 -59 1 -66 -25 -7 -27 12 -68 27 -60 5
4 8 3 7 -2 -1 -4 6 -20 15 -35 13 -19 17 -41 15 -81 -1 -31 -6 -53 -9 -51 -8
5 -41 -31 -34 -38 3 -2 -1 -5 -7 -6 -7 0 -29 -4 -48 -7 -47 -9 -111 16 -107
42 1 10 5 18 9 18 3 0 18 11 32 24 l25 23 -29 37 c-61 76 -61 175 0 245 16 18
26 37 22 41 -4 5 -2 5 5 1 7 -4 27 1 44 10 31 16 47 16 171 2 9 -1 15 -5 12
-9 -2 -4 3 -12 10 -18 12 -10 15 -8 18 11 3 23 6 23 158 28 85 3 137 7 115 8
l-40 2 -3 130 c-2 100 0 130 10 130 9 0 8 3 -2 10 -10 7 14 10 80 12 171 4
-392 13 -1037 16 l-633 3 0 -291 c0 -266 -2 -294 -19 -328 -23 -46 -46 -67
-94 -87 -59 -25 -108 -19 -163 18 -74 50 -84 78 -84 234 l0 133 70 0 70 0 0
-120 c0 -109 2 -120 20 -130 14 -8 26 -8 40 0 19 10 20 21 20 290 l0 280 -545
0 -545 0 0 -27 c0 -43 -38 -110 -76 -134 -69 -42 -169 -23 -215 43 -33 45 -37
132 -10 176 18 27 64 65 94 75 15 5 -41 235 -70 288 -43 80 -98 135 -166 168
-76 36 -128 44 -187 28z m628 -924 c99 -73 96 -201 -7 -270 -70 -47 -165 -23
-218 56 -51 75 -15 187 72 227 40 19 119 12 153 -13z m504 -114 l113 -131 63
69 c34 37 86 96 114 130 29 34 55 60 58 58 3 -2 4 -107 2 -234 l-3 -232 -67 3
-67 3 -5 53 -5 53 -40 -55 c-22 -31 -43 -56 -47 -56 -4 0 -27 26 -50 57 l-43
57 -3 -138 c-2 -119 -5 -138 -20 -143 -9 -4 -39 -19 -65 -35 -26 -15 -50 -28
-52 -28 -3 0 -5 158 -5 350 0 193 2 350 4 350 2 0 55 -59 118 -131z m1935 125
c-3 -3 -12 -4 -19 -1 -8 3 -5 6 6 6 11 1 17 -2 13 -5z m-407 -26 c0 -13 -6
-45 -13 -73 -12 -46 -16 -50 -47 -52 -61 -5 -96 -56 -79 -116 10 -36 54 -67
96 -67 14 0 21 -14 34 -66 18 -77 17 -79 -66 -72 -179 15 -277 229 -168 370
52 67 110 96 196 97 42 1 47 -1 47 -21z m-514 -4 c62 -29 63 -40 9 -94 -39
-39 -52 -47 -66 -39 -25 13 -35 11 -53 -7 -24 -24 -19 -48 20 -95 33 -40 36
-48 31 -92 -9 -99 -114 -150 -191 -91 -19 14 -19 15 17 52 34 35 36 40 22 52
-54 45 -71 159 -35 230 44 85 159 125 246 84z m204 -214 l0 -220 -70 0 -70 0
0 220 0 220 70 0 70 0 0 -220z m948 45 c0 -14 -4 -25 -9 -25 -5 0 -9 11 -9 25
0 14 4 25 9 25 5 0 9 -11 9 -25z m-2597 -229 c121 -83 73 -278 -72 -293 -98
-10 -186 78 -176 176 12 116 152 182 248 117z m2566 -232 c-3 -3 -12 -4 -19
-1 -8 3 -5 6 6 6 11 1 17 -2 13 -5z m28 -4 c3 -5 1 -10 -4 -10 -6 0 -11 5 -11
10 0 6 2 10 4 10 3 0 8 -4 11 -10z m-2199 -167 l54 -26 0 -64 0 -64 62 3 62 3
37 -53 c82 -116 134 -283 127 -407 -6 -99 -31 -159 -92 -219 -108 -104 -237
-96 -356 23 -36 36 -55 68 -84 141 -29 77 -146 460 -146 482 0 3 56 9 125 13
l125 7 0 94 c0 109 0 109 86 67z m794 -385 c57 -39 75 -72 75 -137 0 -73 -33
-121 -100 -146 -105 -41 -204 24 -212 137 -7 97 60 168 158 168 31 0 57 -7 79
-22z m-203 -544 c44 -33 63 -73 63 -131 0 -158 -196 -212 -294 -80 -14 19 -20
43 -20 80 -2 134 146 211 251 131z"/>
<path d="M5223 3553 c15 -2 39 -2 55 0 15 2 2 4 -28 4 -30 0 -43 -2 -27 -4z"/>
<path d="M5548 3553 c17 -2 47 -2 65 0 17 2 3 4 -33 4 -36 0 -50 -2 -32 -4z"/>
<path d="M5224 3135 c0 -66 1 -92 3 -57 2 34 2 88 0 120 -2 31 -3 3 -3 -63z"/>
<path d="M5294 3140 c0 -63 1 -89 3 -57 2 31 2 83 0 115 -2 31 -3 5 -3 -58z"/>
<path d="M5444 3120 c0 -74 1 -105 3 -67 2 37 2 97 0 135 -2 37 -3 6 -3 -68z"/>
<path d="M5036 2955 c-10 -28 -7 -45 9 -45 16 0 20 27 6 48 -7 11 -10 10 -15
-3z"/>
<path d="M5177 2859 c7 -7 15 -10 18 -7 3 3 -2 9 -12 12 -14 6 -15 5 -6 -5z"/>
<path d="M5330 2860 c-9 -6 -10 -10 -3 -10 6 0 15 5 18 10 8 12 4 12 -15 0z"/>
<path d="M5238 2843 c12 -2 32 -2 45 0 12 2 2 4 -23 4 -25 0 -35 -2 -22 -4z"/>
<path d="M5507 2803 c18 -2 50 -2 70 0 21 2 7 4 -32 4 -38 0 -55 -2 -38 -4z"/>
</g>
</svg>
